<?xml version="1.0" standalone="no"?><!DOCTYPE svg PUBLIC "-//W3C//DTD SVG 1.1//EN" "http://www.w3.org/Graphics/SVG/1.1/DTD/svg11.dtd"><svg t="1712829654279" class="icon" viewBox="0 0 1024 1024" version="1.1" xmlns="http://www.w3.org/2000/svg" p-id="5305" xmlns:xlink="http://www.w3.org/1999/xlink" width="200" height="200"><path d="M798.096459 430.254208c8.450463 4.226255 15.461133 6.712889 21.541619 9.331529l0.215918 0.095167c11.486612 4.974291 19.633153 10.510378 27.886117 29.388331 11.546987 26.419719 5.603625 82.210373 17.273409 143.334499 15.155165 3.524267 25.261337 23.422456 24.309662 33.69952-0.940418 10.281157-1.843998 8.956999-4.006244 12.760628l67.557652 162.573679-90.423429 20.171412-14.58109-168.364569c-13.701047-4.508687-22.717398-20.767999-21.595854-32.93818 1.121544-12.172227 5.760191-17.452487 12.81691-22.615067-11.396561-59.764152-5.099135-114.088408-15.58393-138.094148-9.146311-20.933775-42.050722-30.80561-66.541509-40.571021-85.324294-34.032094-170.45109-66.413596-256.559237-94.381577-26.776853-8.698103-3.910053-48.02069 41.800012-27.77253L798.096459 430.254208z" fill="#965E89" p-id="5306"></path><path d="M509.734912 180.619684l442.84599 145.488559 1.196245 19.794835-130.160455 73.048713c-92.364641-37.597293-184.309726-76.246545-277.093922-112.796996-86.684268-34.145681-94.272084 31.562856-68.318992 42.844807l254.021437 110.424972-221.280756 97.992825c-2.834558 1.255597-5.813403 1.337461-8.600889-0.010233L62.509171 345.893868l1.202385-19.782555 439.827237-145.489582C505.634524 179.930999 507.625878 179.977048 509.734912 180.619684L509.734912 180.619684z" fill="#965E89" p-id="5307"></path><path d="M229.105466 470.898907 215.450469 676.569126c-0.115634 1.731434 0.585331 3.335978 2.040473 4.455475 1.454118 1.122567 3.317559 1.460258 5.065366 1.025353 97.306186-24.276916 203.641003 24.400736 280.69903 131.169435 1.412163 1.970888 5.350868 1.970888 6.77224 0 77.05598-106.772792 183.383634-155.445328 280.68982-131.169435 1.753947 0.434905 3.610224 0.097214 5.064342-1.025353 1.463328-1.12052 2.156106-2.693342 2.047636-4.455475l-13.605879-204.953905L525.959432 585.984015c-12.4301 5.501294-26.302039 5.485945-38.71372-0.049119L229.105466 470.898907z" fill="#965E89" p-id="5308"></path></svg>