<?xml version="1.0" standalone="no"?><!DOCTYPE svg PUBLIC "-//W3C//DTD SVG 1.1//EN" "http://www.w3.org/Graphics/SVG/1.1/DTD/svg11.dtd"><svg t="1722782853890" class="icon" viewBox="0 0 1024 1024" version="1.1" xmlns="http://www.w3.org/2000/svg" p-id="1588" xmlns:xlink="http://www.w3.org/1999/xlink" width="200" height="200"><path d="M512 1024a512 512 0 1 1 512-512 512 512 0 0 1-512 512z m0-960a448 448 0 1 0 448 448A448 448 0 0 0 512 64z" fill="#2A2A3B" p-id="1589"></path><path d="M512 640a128 128 0 1 1 128-128 128 128 0 0 1-128 128z m0-192a64 64 0 1 0 64 64 64 64 0 0 0-64-64z" fill="#2A2A3B" p-id="1590"></path><path d="M480 128h64v320h-64zM480 576h64v320h-64z" fill="#2A2A3B" p-id="1591"></path><path d="M534.56 444.096l226.24-226.272 45.28 45.248-226.272 226.272zM217.76 760.928l226.24-226.272 45.28 45.248-226.272 226.272z" fill="#2A2A3B" p-id="1592"></path></svg>