<?xml version="1.0" standalone="no"?><!DOCTYPE svg PUBLIC "-//W3C//DTD SVG 1.1//EN" "http://www.w3.org/Graphics/SVG/1.1/DTD/svg11.dtd"><svg t="1722783953103" class="icon" viewBox="0 0 1024 1024" version="1.1" xmlns="http://www.w3.org/2000/svg" p-id="5136" xmlns:xlink="http://www.w3.org/1999/xlink" width="200" height="200"><path d="M796.444444 1024a227.043556 227.043556 0 0 1-219.534222-170.666667H447.032889A227.157333 227.157333 0 1 1 227.555556 568.888889a230.968889 230.968889 0 0 1 46.819555 4.892444L429.795556 439.182222a226.816 226.816 0 1 1 170.666666-1.991111l138.296889 139.946667A227.157333 227.157333 0 1 1 796.444444 1024zM113.777778 796.444444a113.777778 113.777778 0 1 0 113.777778-113.777777 113.777778 113.777778 0 0 0-113.777778 113.777777zM512 113.777778a113.777778 113.777778 0 1 0 113.777778 113.777778 113.777778 113.777778 0 0 0-113.777778-113.777778z m6.712889 396.174222l-137.784889 119.466667A226.304 226.304 0 0 1 447.032889 739.555556h129.877333a226.759111 226.759111 0 0 1 62.577778-107.349334zM796.444444 682.666667a113.777778 113.777778 0 1 0 113.777778 113.777777 113.777778 113.777778 0 0 0-113.777778-113.777777z" fill="#4A596F" p-id="5137"></path></svg>